<svg width="10" height="12" viewBox="0 0 10 12" fill="none" xmlns="http://www.w3.org/2000/svg">
<path d="M9.24898 6.79989C9.24907 6.79641 9.24916 6.79302 9.24916 6.78954C9.24916 6.07662 8.66908 5.49654 7.95607 5.49654H7.60313L9.15056 1.76438C9.4233 1.10584 9.10945 0.34797 8.45082 0.0749589C7.7921 -0.197869 7.03422 0.116066 6.76139 0.774789L5.79432 3.10939L4.82734 0.774698C4.55442 0.116066 3.79655 -0.197869 3.13791 0.0749589C2.47928 0.347878 2.16535 1.10566 2.43817 1.76429L3.27826 3.79256C3.17225 3.85518 3.07602 3.93245 2.99216 4.02162C2.75614 3.77077 2.4216 3.61357 2.05081 3.61348C1.3378 3.61348 0.757812 4.19356 0.757812 4.90657V7.73089C0.757812 10.072 2.66239 11.9766 5.00349 11.9766C7.34449 11.9766 9.24907 10.072 9.24907 7.73089L9.24898 6.79989ZM3.40708 0.724618C3.70746 0.600106 4.05317 0.743387 4.17768 1.04386L5.46949 4.16261C5.52397 4.29399 5.65214 4.37969 5.79432 4.37969C5.9365 4.37969 6.06468 4.29399 6.11915 4.16261L7.41096 1.04386C7.53547 0.743387 7.88118 0.600106 8.18165 0.724527C8.48213 0.84913 8.62532 1.19483 8.5009 1.49522L6.84187 5.49654H5.2266L5.22669 4.90657C5.2266 4.20436 4.66373 3.63152 3.96555 3.6143L3.08783 1.49531C2.96332 1.19483 3.1066 0.84913 3.40708 0.724618ZM3.9336 5.49654C3.7212 5.49654 3.52079 5.54836 3.34382 5.63954V4.90657C3.34382 4.58128 3.6084 4.3167 3.9336 4.3167C4.25889 4.3167 4.52348 4.58138 4.52357 4.90657L4.52348 5.49654H3.9336ZM1.46094 4.90657C1.46094 4.58128 1.72553 4.31661 2.05072 4.31661C2.37601 4.3167 2.6406 4.58138 2.64069 4.90657V6.78945C2.6406 7.11465 2.37601 7.37923 2.05081 7.37923C1.72562 7.37923 1.46094 7.11465 1.46094 6.78945V4.90657ZM5.00349 11.2734C3.12134 11.2734 1.57749 9.79788 1.46753 7.94283C1.64285 8.03182 1.84097 8.08245 2.05081 8.08245C2.4216 8.08245 2.75623 7.92526 2.99225 7.67431C3.22828 7.92526 3.56281 8.08245 3.93369 8.08245H7.01463C7.20881 8.08245 7.36619 7.92507 7.36619 7.73089C7.36619 7.5368 7.20881 7.37933 7.01463 7.37933H3.93369C3.6085 7.37933 3.34382 7.11465 3.34382 6.78945C3.34391 6.46425 3.6085 6.19967 3.93369 6.19967H4.87495C4.87504 6.19967 4.87504 6.19967 4.87504 6.19967H4.87513C4.87513 6.19967 4.87513 6.19967 4.87522 6.19967H7.07487C7.07542 6.19967 7.07606 6.19976 7.07661 6.19976C7.07744 6.19976 7.07817 6.19967 7.07899 6.19967H7.95607C8.28007 6.19967 8.54384 6.46206 8.54604 6.78551C8.54594 6.78872 8.54594 6.79201 8.54594 6.79531V7.73089C8.54594 9.68426 6.95677 11.2734 5.00349 11.2734Z" fill="#FFBC33"/>
</svg>
